<?xml version="1.0" standalone="no"?>
<!DOCTYPE svg PUBLIC "-//W3C//DTD SVG 20010904//EN"
 "http://www.w3.org/TR/2001/REC-SVG-20010904/DTD/svg10.dtd">
<svg version="1.0" xmlns="http://www.w3.org/2000/svg"
 width="171.000000pt" height="177.000000pt" viewBox="0 0 171.000000 177.000000"
 preserveAspectRatio="xMidYMid meet">

<g transform="translate(0.000000,177.000000) scale(0.100000,-0.100000)"
fill="#000000" stroke="none">
<path d="M782 1690 c-253 -35 -465 -165 -595 -366 -271 -418 -117 -983 324
-1194 122 -58 221 -81 354 -81 126 0 181 9 283 46 251 91 438 295 514 560 32
114 32 315 -1 430 -86 303 -321 527 -621 590 -93 19 -186 25 -258 15z m313
-70 c140 -44 279 -136 370 -247 330 -400 199 -990 -270 -1213 -111 -53 -199
-72 -325 -71 -357 2 -658 235 -752 583 -29 108 -31 269 -4 378 73 295 298 518
591 586 91 21 300 12 390 -16z"/>
<path d="M824 1535 c-21 -21 -25 -32 -20 -58 9 -44 33 -67 73 -67 18 0 33 5
33 10 0 6 -11 10 -24 10 -25 0 -56 32 -56 57 0 24 40 54 62 47 15 -4 19 -2 16
7 -8 26 -56 22 -84 -6z"/>
<path d="M690 1521 c-5 -11 -10 -31 -10 -45 0 -33 -7 -33 -41 0 -17 16 -34 24
-43 21 -14 -6 -13 -14 7 -69 12 -35 27 -61 32 -58 6 3 9 10 8 15 -1 6 -5 24
-9 40 l-7 30 25 -22 c26 -25 48 -16 48 19 0 30 18 20 30 -17 14 -42 35 -48 26
-7 -12 48 -38 112 -47 112 -5 0 -13 -9 -19 -19z"/>
<path d="M977 1533 c-11 -18 -18 -133 -9 -133 13 0 19 17 27 83 5 38 4 57 -3
57 -6 0 -13 -3 -15 -7z"/>
<path d="M1074 1488 c-16 -30 -15 -31 11 -52 24 -19 25 -23 12 -35 -12 -9 -21
-10 -37 -1 -28 15 -41 2 -16 -16 24 -17 58 -18 74 -2 19 19 14 54 -10 71 -30
20 -12 45 20 28 13 -7 23 -7 27 -2 6 11 -1 16 -38 30 -24 9 -28 7 -43 -21z"/>
<path d="M484 1397 c-6 -7 -25 -24 -43 -40 -28 -24 -40 -47 -25 -47 10 0 34
28 34 39 0 6 6 11 13 11 14 0 47 31 47 43 0 11 -14 7 -26 -6z"/>
<path d="M1230 1401 c0 -5 10 -15 23 -23 24 -16 37 -21 37 -13 0 3 -3 6 -7 6
-5 1 -14 10 -21 20 -14 20 -32 25 -32 10z"/>
<path d="M1300 1334 c0 -8 5 -12 10 -9 6 3 10 10 10 16 0 5 -4 9 -10 9 -5 0
-10 -7 -10 -16z"/>
<path d="M1326 1322 c-8 -14 11 -35 25 -27 9 6 11 4 6 -8 -4 -10 5 -28 23 -47
16 -17 29 -33 29 -36 0 -2 4 -12 9 -20 7 -13 11 -14 17 -3 5 7 4 14 -3 17 -7
2 -12 10 -12 18 0 8 -7 17 -15 20 -8 4 -15 12 -15 20 0 8 -4 14 -10 14 -5 0
-10 6 -10 13 0 16 -38 49 -44 39z"/>
<path d="M386 1305 c-3 -9 0 -15 9 -15 9 0 12 6 9 15 -4 8 -7 15 -9 15 -2 0
-5 -7 -9 -15z"/>
<path d="M357 1262 c-10 -10 -14 -22 -10 -25 3 -4 13 2 21 14 18 26 10 35 -11
11z"/>
<path d="M321 1223 c3 -19 -2 -33 -17 -47 -8 -9 -14 -24 -12 -34 2 -11 11 -2
26 29 25 51 26 59 12 59 -5 0 -9 -3 -9 -7z"/>
<path d="M960 1160 c44 -6 43 -6 -25 -11 -41 -2 -73 0 -77 6 -8 10 -9 7 -12
-17 0 -7 -10 -14 -21 -16 -16 -3 -17 -1 -5 7 9 7 10 11 3 11 -18 0 -43 -29
-43 -51 0 -11 -7 -22 -15 -25 -8 -4 -12 -10 -9 -15 3 -5 -2 -9 -11 -9 -11 0
-15 -5 -11 -15 5 -14 -5 -19 -31 -16 -8 1 -10 -5 -6 -15 5 -13 2 -15 -17 -9
-14 4 -20 3 -16 -3 6 -10 -29 -25 -52 -23 -7 1 -15 -6 -19 -15 -8 -22 -75 -83
-91 -84 -29 0 -24 32 11 66 24 24 33 41 30 55 -7 24 -15 24 -66 -3 -23 -13
-43 -24 -45 -25 -2 0 3 -11 10 -22 8 -14 9 -24 3 -29 -20 -14 -15 -43 12 -72
26 -28 30 -29 55 -16 32 17 38 13 32 -21 -6 -30 -28 -54 -46 -51 -7 2 -12 -5
-12 -14 1 -10 -3 -16 -10 -15 -12 2 -18 -71 -7 -88 3 -5 6 -18 6 -29 0 -27 48
-30 71 -5 11 12 13 19 5 19 -14 0 -6 38 12 55 7 7 8 6 3 -2 -5 -9 -2 -11 8 -7
9 3 13 11 9 17 -4 6 4 7 23 3 37 -10 42 -15 24 -27 -13 -9 -12 -10 2 -6 16 6
45 -18 48 -38 1 -5 7 -9 15 -7 7 1 15 -4 17 -13 3 -13 6 -13 30 -1 20 10 28
11 31 3 2 -7 4 2 4 20 0 19 -4 30 -10 26 -6 -4 -8 1 -4 11 5 14 3 17 -8 12
-11 -4 -15 1 -15 18 0 12 3 26 8 30 4 4 7 13 7 19 0 17 30 20 46 4 8 -7 22
-16 32 -20 9 -3 18 -14 19 -24 2 -32 4 -37 24 -71 16 -28 23 -32 47 -28 15 3
27 1 27 -4 0 -5 7 -7 15 -4 8 4 15 16 15 28 0 15 -3 17 -9 8 -6 -10 -10 -8
-14 10 -4 12 -7 33 -7 46 0 20 4 23 33 20 29 -3 33 -7 43 -48 9 -40 14 -45 42
-48 19 -2 32 1 32 8 0 6 -4 8 -10 5 -5 -3 -10 -1 -10 4 0 6 4 11 8 11 4 0 13
21 20 46 10 35 10 50 1 60 -9 11 -9 14 0 14 6 0 17 -12 23 -27 7 -16 13 -29
14 -31 6 -10 44 26 44 42 0 13 5 17 20 13 11 -3 23 -1 26 4 3 5 17 9 31 9 17
0 23 4 20 14 -3 7 0 19 6 25 8 8 8 11 -1 11 -14 0 -16 36 -2 45 6 3 10 15 10
26 0 11 3 18 8 16 4 -3 7 19 7 49 0 30 -3 54 -7 54 -5 0 -8 10 -8 23 0 14 -3
18 -8 10 -6 -9 -13 -7 -27 10 -11 12 -20 27 -20 32 0 6 -12 9 -28 7 -22 -3
-27 1 -27 17 0 19 -6 21 -56 21 -30 0 -53 4 -50 9 3 4 -6 13 -20 20 -19 8 -23
8 -18 0 4 -7 2 -10 -5 -8 -7 3 -12 9 -11 14 2 14 -30 24 -75 23 l-40 -1 45 -7z
m85 -63 c41 -24 42 -28 30 -92 -4 -19 -1 -37 9 -50 19 -27 29 -15 16 20 -8 22
-7 33 5 51 20 31 35 31 35 0 0 -29 45 -84 53 -64 2 7 -4 23 -15 35 -11 12 -17
26 -13 32 12 21 47 11 81 -23 39 -39 41 -60 16 -156 -17 -62 -19 -65 -50 -68
-18 -2 -36 -10 -39 -18 -7 -20 -27 -17 -48 6 -25 28 -42 25 -91 -15 -42 -34
-68 -43 -78 -27 -3 5 8 22 24 37 28 27 39 55 22 55 -4 0 -24 -17 -44 -37 -30
-31 -38 -49 -44 -93 l-7 -55 -23 49 c-13 27 -29 53 -38 58 -19 11 -12 66 16
126 11 24 17 46 13 50 -12 12 -43 -36 -56 -89 -7 -28 -19 -53 -26 -56 -7 -3
-33 0 -60 5 -46 10 -47 10 -83 -27 -21 -21 -51 -41 -68 -44 -22 -4 -39 -17
-52 -39 l-20 -33 0 29 c0 19 12 42 35 67 31 34 35 45 35 92 0 62 14 79 99 122
58 29 151 110 151 131 0 45 148 59 215 21z m-248 -19 c-3 -8 -6 -5 -6 6 -1 11
2 17 5 13 3 -3 4 -12 1 -19z m-72 -328 c3 -5 -2 -24 -11 -42 -13 -25 -14 -36
-5 -51 18 -28 8 -30 -22 -6 -31 24 -33 38 -12 79 15 30 38 39 50 20z m353 -34
c5 -23 -6 -66 -17 -66 -10 0 -23 69 -15 82 9 14 29 4 32 -16z"/>
<path d="M1190 911 c0 -6 5 -13 10 -16 6 -3 10 1 10 9 0 9 -4 16 -10 16 -5 0
-10 -4 -10 -9z"/>
<path d="M1437 1143 c3 -7 9 -10 14 -7 14 8 11 21 -5 21 -8 0 -12 -6 -9 -14z"/>
<path d="M270 1128 c0 -9 5 -20 10 -23 13 -8 13 5 0 25 -8 13 -10 13 -10 -2z"/>
<path d="M1460 1089 c0 -11 5 -17 10 -14 6 3 10 13 10 21 0 8 -4 14 -10 14 -5
0 -10 -9 -10 -21z"/>
<path d="M1484 1046 c-3 -8 0 -38 6 -67 7 -30 12 -68 13 -86 1 -17 5 -35 9
-38 4 -4 6 10 4 31 -2 22 -4 62 -5 89 -1 38 -4 46 -12 35 -8 -11 -9 -7 -4 18
7 32 -1 44 -11 18z"/>
<path d="M247 1032 c-19 -20 -23 -37 -7 -27 10 6 33 45 27 45 -2 0 -11 -8 -20
-18z"/>
<path d="M540 1010 c14 -10 27 -16 30 -13 6 6 -30 33 -44 33 -6 0 0 -9 14 -20z"/>
<path d="M232 973 c-13 -32 -7 -212 7 -226 11 -10 12 -5 7 28 -9 62 -10 126
-2 173 8 43 1 56 -12 25z"/>
<path d="M450 980 c-8 -5 -10 -10 -5 -10 6 0 17 5 25 10 8 5 11 10 5 10 -5 0
-17 -5 -25 -10z"/>
<path d="M557 943 c-4 -3 -7 -11 -7 -17 0 -6 5 -5 12 2 6 6 9 14 7 17 -3 3 -9
2 -12 -2z"/>
<path d="M1321 924 c0 -11 3 -14 6 -6 3 7 2 16 -1 19 -3 4 -6 -2 -5 -13z"/>
<path d="M505 890 c-3 -5 -1 -10 4 -10 6 0 11 5 11 10 0 6 -2 10 -4 10 -3 0
-8 -4 -11 -10z"/>
<path d="M1489 757 c-8 -43 -12 -80 -8 -83 10 -6 31 98 27 133 -2 18 -8 1 -19
-50z"/>
<path d="M245 703 c4 -10 10 -26 12 -35 3 -10 10 -18 15 -18 6 0 7 8 3 18 -4
9 -10 25 -12 35 -3 9 -10 17 -15 17 -6 0 -7 -8 -3 -17z"/>
<path d="M1462 652 c1 -4 -1 -25 -6 -46 -6 -29 -10 -36 -17 -25 -6 11 -9 11
-9 1 0 -7 -21 -43 -46 -79 -25 -35 -43 -67 -40 -71 8 -7 46 38 46 55 0 7 5 13
10 13 6 0 10 4 10 9 0 6 11 22 25 37 14 15 25 32 25 38 0 6 6 23 14 38 12 23
12 27 0 32 -7 3 -13 2 -12 -2z"/>
<path d="M860 600 c0 -5 5 -10 11 -10 5 0 7 5 4 10 -3 6 -8 10 -11 10 -2 0 -4
-4 -4 -10z"/>
<path d="M287 588 c4 -7 8 -16 8 -20 0 -7 14 -12 16 -5 2 9 -15 37 -23 37 -5
0 -6 -6 -1 -12z"/>
<path d="M310 530 c0 -6 7 -13 15 -16 8 -4 15 -12 15 -20 0 -8 5 -14 10 -14 6
0 10 -5 10 -11 0 -13 29 -43 36 -36 7 6 -18 47 -28 47 -5 0 -8 4 -8 10 0 12
-32 50 -42 50 -5 0 -8 -5 -8 -10z"/>
<path d="M473 380 c-13 -15 -23 -32 -23 -37 0 -12 41 -36 48 -27 4 4 1 9 -5
11 -18 6 -16 28 2 43 16 13 21 40 8 39 -5 0 -18 -13 -30 -29z"/>
<path d="M1210 381 c-12 -23 3 -37 33 -33 20 4 22 -9 5 -27 -11 -10 -9 -12 7
-9 13 2 21 12 23 31 3 23 0 27 -24 27 -22 0 -25 2 -14 15 10 12 10 15 -3 15
-9 0 -21 -9 -27 -19z"/>
<path d="M543 324 c-17 -34 -17 -36 1 -50 24 -17 34 -10 16 11 -10 13 -9 15
10 15 20 0 21 2 9 17 -13 15 -12 16 9 11 27 -7 29 7 3 22 -28 15 -30 14 -48
-26z"/>
<path d="M1150 334 c0 -11 -6 -14 -20 -9 -25 8 -25 -4 -2 -44 19 -35 37 -41
29 -11 -4 17 -1 18 27 14 31 -5 31 -5 9 12 -13 9 -23 25 -23 35 0 11 -4 19
-10 19 -5 0 -10 -7 -10 -16z"/>
<path d="M627 283 c-18 -45 -14 -53 13 -28 20 18 20 17 20 -8 0 -34 26 -36 34
-3 3 13 9 31 12 40 3 9 1 16 -5 16 -6 0 -11 -7 -11 -15 0 -24 -17 -17 -24 10
-9 35 -21 31 -39 -12z"/>
<path d="M747 283 c-3 -5 -8 -22 -11 -40 -6 -26 -4 -34 14 -43 11 -6 26 -8 32
-4 7 5 3 11 -13 17 -20 8 -21 11 -6 14 20 5 23 19 5 26 -8 4 -4 9 10 13 18 5
20 9 10 15 -16 11 -35 11 -41 2z"/>
<path d="M830 273 c0 -5 4 -15 9 -22 6 -9 6 -22 -1 -34 -11 -22 -1 -38 12 -17
7 11 12 11 23 2 11 -10 14 -4 14 33 0 38 -2 43 -15 32 -12 -9 -16 -9 -19 1 -5
13 -23 17 -23 5z"/>
<path d="M950 258 c0 -13 -3 -34 -7 -47 -6 -23 -6 -23 20 -7 17 12 27 14 32 6
3 -6 10 -8 15 -5 5 3 2 21 -7 40 -19 41 -53 48 -53 13z"/>
<path d="M1054 226 c-8 -22 3 -33 18 -18 9 9 9 15 0 24 -9 9 -13 7 -18 -6z"/>
</g>
</svg>
